<svg xmlns="http://www.w3.org/2000/svg" viewBox="0 0 400 500" preserveAspectRatio="xMidYMid slice"><rect width="400" height="500" fill="#eeeeee"/><g fill="none" stroke="#b8b8b8" stroke-width="2.4" stroke-linejoin="round" stroke-linecap="round"><path d="M150 125 L115 105 L55 165 L95 215 L125 195 L125 430 Q200 445 275 430 L275 195 L305 215 L345 165 L285 105 L250 125 L200 165 L150 125 Z"/><path d="M150 125 L200 165 L250 125"/><path d="M200 165 L200 430"/><circle cx="200" cy="220" r="2.6" fill="#b8b8b8"/><circle cx="200" cy="265" r="2.6" fill="#b8b8b8"/><circle cx="200" cy="310" r="2.6" fill="#b8b8b8"/><circle cx="200" cy="355" r="2.6" fill="#b8b8b8"/><path d="M150 220 L175 220 M150 250 L175 250" /><path d="M225 220 L250 220 M225 250 L250 250" /></g><text x="200" y="480" text-anchor="middle" fill="#c0c0c0" font-family="-apple-system, sans-serif" font-size="13" font-weight="600" letter-spacing="0.06em">JAKET · PLACEHOLDER</text></svg>
