<svg xmlns="http://www.w3.org/2000/svg" viewBox="0 0 400 500" preserveAspectRatio="xMidYMid slice"><rect width="400" height="500" fill="#eeeeee"/><g fill="none" stroke="#b8b8b8" stroke-width="2.4" stroke-linejoin="round" stroke-linecap="round"><path d="M150 120 L120 100 L60 160 L100 210 L130 188 L130 430 Q200 445 270 430 L270 188 L300 210 L340 160 L280 100 L250 120 Q200 160 150 120 Z"/><path d="M150 120 Q200 165 250 120"/><path d="M163 110 Q200 145 237 110"/><path d="M200 165 L200 420" stroke-dasharray="4 7"/><circle cx="200" cy="200" r="2.5" fill="#b8b8b8"/><circle cx="200" cy="240" r="2.5" fill="#b8b8b8"/><circle cx="200" cy="280" r="2.5" fill="#b8b8b8"/><circle cx="200" cy="320" r="2.5" fill="#b8b8b8"/></g><text x="200" y="480" text-anchor="middle" fill="#c0c0c0" font-family="-apple-system, sans-serif" font-size="13" font-weight="600" letter-spacing="0.06em">KEMEJA · PLACEHOLDER</text></svg>
