<svg xmlns="http://www.w3.org/2000/svg" viewBox="0 0 400 500" preserveAspectRatio="xMidYMid slice"><rect width="400" height="500" fill="#eeeeee"/><g fill="none" stroke="#b8b8b8" stroke-width="2.4" stroke-linejoin="round" stroke-linecap="round"><path d="M155 110 L120 95 L60 165 L100 215 L130 195 L130 290 Q130 295 132 300 L150 460 Q175 470 200 470 Q225 470 250 460 L268 300 Q270 295 270 290 L270 195 L300 215 L340 165 L280 95 L245 110 Q200 145 155 110 Z"/><path d="M155 110 Q200 150 245 110"/><path d="M200 150 L200 460" stroke-dasharray="4 6"/><circle cx="200" cy="180" r="2.6" fill="#b8b8b8"/><circle cx="200" cy="220" r="2.6" fill="#b8b8b8"/><circle cx="200" cy="260" r="2.6" fill="#b8b8b8"/><rect x="143" y="290" width="40" height="50" rx="2"/><rect x="217" y="290" width="40" height="50" rx="2"/></g><text x="200" y="490" text-anchor="middle" fill="#c0c0c0" font-family="-apple-system, sans-serif" font-size="13" font-weight="600" letter-spacing="0.06em">WEARPACK · PLACEHOLDER</text></svg>
